# xmcd
# Copyright (C) 1995-1998 Ti Kan
#
# Track frame offsets:
#       150
#       13145
#       26152
#       37824
#       49799
#       63170
#       84481
#       104265
#       115550
#       131082
#       143898
#       154227
#       164019
#
# Disc length: 2429 seconds
#
# Revision: 0
# Processed by: cddbd v1.5.2PL0 Copyright (c) Steve Scherf et al.
# Submitted via: CD-Import v1.0
#
DISCID=a9097b0d
DTITLE=Fugazi - 13 Songs
DYEAR=1989
DGENRE=
TTITLE0=Waiting Room
TTITLE1=Bulldog Frog
TTITLE2=Bad Mouth
TTITLE3=Burning
TTITLE4=Give Me The Cure
TTITLE5=Suggestion
TTITLE6=Glue Man
TTITLE7=Margin Walker
TTITLE8=And The Same
TTITLE9=Burning Too
TTITLE10=Provisional
TTITLE11=Lockdown
TTITLE12=Promises
EXTD=
EXTT0=
EXTT1=
EXTT2=
EXTT3=
EXTT4=
EXTT5=
EXTT6=
EXTT7=
EXTT8=
EXTT9=
EXTT10=
EXTT11=
EXTT12=
PLAYORDER=
